<svg xmlns="http://www.w3.org/2000/svg" width="104" height="122">
  <path fill="#FFFFFF" fill-rule="evenodd" d="M.8126822 5.06620123L52.1758761 59.1350687c1.0996233 1.1575485 1.0999863 2.9735448.0008258 4.1315328L1.23505285 116.934668c-1.14065112 1.2017-1.09116185 3.10055.11053738 4.241201.55745495.529135 1.29673524.824131 2.06533155.824131H45.2226596c.8156982 0 1.5962293-.332152 2.1617957-.919943l55.6134327-57.7988268c1.117888-1.1618169 1.117566-2.9994475-.000729-4.1608725L46.9572993.91918503C46.3917802.33185522 45.6115659 0 44.7962327 0H2.98772529c-1.65685424 0-3 1.34314575-3 3 0 .76901085.29531318 1.50865731.8249569 2.06620123z"/>
</svg>
