<svg xmlns="http://www.w3.org/2000/svg" xmlns:xlink="http://www.w3.org/1999/xlink" width="169" height="109">
  <defs>
    <path id="a" d="M0 0h90v109H0z"/>
  </defs>
  <g fill="none" fill-rule="evenodd">
    <mask id="b" fill="#fff">
      <use xlink:href="#a"/>
    </mask>
    <path fill="#B31424" fill-rule="nonzero" vector-effect="non-scaling-stroke" stroke="#FFF" stroke-width="2" d="M-1.99665164 1l.35767626 107H38.7689834c.559783 0 1.0939457-.234599 1.4726965-.646795l46.5342804-50.6433632c1.0548793-1.1480275 1.054571-2.9127293-.0007095-4.0603881L39.8774704 1.64628002C39.4987402 1.2343961 38.9647868 1 38.4052469 1H-1.99665164z" mask="url(#b)"/>
    <path fill="#B31424" fill-rule="nonzero" vector-effect="non-scaling-stroke" stroke="#FFF" stroke-width="2" d="M80.2593567 2.67189843L125.611237 52.6639273c1.037118 1.1432316 1.037466 2.8868605.000802 4.0305048L80.6210236 106.328396c-.3709165.409194-.3398864 1.041599.0693073 1.412515.1839444.166737.4233355.259089.6716035.259089h36.8923286c.559784 0 1.093946-.234599 1.472697-.646795l46.534281-50.643363c1.054879-1.1480276 1.05457-2.9127296-.000709-4.0603883L119.36275 1.64627982C118.98402 1.23439602 118.450067 1 117.890527 1H81c-.5522848 0-1 .44771525-1 1 0 .24840526.0924536.48791876.2593567.67189844z"/>
  </g>
</svg>
