<?xml version="1.0" encoding="UTF-8"?>
<svg viewBox="0 0 706 241" version="1.1" xmlns="http://www.w3.org/2000/svg" xmlns:xlink="http://www.w3.org/1999/xlink">
    <!-- Generator: Sketch 58 (84663) - https://sketch.com -->
    <title>Group</title>
    <desc>Created with Sketch.</desc>
    <g id="Page-1" stroke="none" stroke-width="1" fill="none" fill-rule="evenodd">
        <g id="Group" transform="translate(0.670000, 0.500000)" fill-rule="nonzero">
            <path d="M245.96,68.31 L229.17,38.5 L219.33,50.11 L219.33,68.31 L207,68.31 L207,6.5 L219.33,6.5 L219.33,26.3 C219.33,27.22 219.33,28.15 219.33,29.09 C219.33,30.03 219.27,30.94 219.24,31.83 C219.21,32.72 219.24,33.39 219.24,33.83 C219.873322,32.805471 220.581942,31.8294474 221.36,30.91 L224.09,27.55 L241.33,6.5 L256.26,6.5 L238.15,27.88 L260.86,68.34 L245.96,68.31 Z" id="Path" fill="#0B0D0D"></path>
            <polygon id="Path" fill="#0B0D0D" points="268.85 68.31 268.85 6.5 311.7 6.5 311.7 18.61 281.13 18.61 281.13 29.21 298.89 29.21 298.89 41.31 281.13 41.31 281.13 56.24 313.02 56.24 313.02 68.34"></polygon>
            <polygon id="Path" fill="#0B0D0D" points="323.79 68.31 323.79 6.5 366.64 6.5 366.64 18.61 336.07 18.61 336.07 29.21 353.83 29.21 353.83 41.31 336.07 41.31 336.07 56.24 367.96 56.24 367.96 68.34"></polygon>
            <path d="M428.84,26.09 C428.915537,29.2490594 428.343809,32.3901607 427.16,35.32 C426.126671,37.7671068 424.52184,39.9308856 422.48,41.63 C420.386254,43.3240154 417.960821,44.5605779 415.36,45.26 C412.468759,46.040722 409.484698,46.4242428 406.49,46.4 L392.88,46.4 L392.88,68.31 L380.6,68.31 L380.6,6.49960988 L407.6,6.49960988 C410.381415,6.48523286 413.149169,6.88977671 415.81,7.7 C418.304959,8.43765108 420.620203,9.68379741 422.61,11.36 C424.579833,13.0400812 426.151138,15.137432 427.21,17.5 C428.358446,20.2147077 428.914162,23.1432958 428.84,26.09 L428.84,26.09 Z M416.110011,26.35 C416.110011,23.67 415.3,21.71 413.69,20.45 C411.763147,19.109609 409.44369,18.4514322 407.1,18.58 L392.88,18.58 L392.88,34.3 L407.33,34.3 C413.19,34.3 416.116667,31.65 416.110011,26.35 Z" id="Shape" fill="#0B0D0D"></path>
            <path d="M48.92,126.58 C48.9719565,129.458864 48.4448553,132.318813 47.37,134.99 C46.4027021,137.338838 44.9114033,139.43555 43.01,141.12 C41.0329519,142.809759 38.7281105,144.072826 36.24,144.83 C33.3872007,145.691295 30.4198016,146.112801 27.44,146.08 L0,146.08 L0,85.69 L27.7,85.69 C33.56,85.69 38.2266667,87.0533333 41.7,89.78 C45.1733333,92.5066667 46.9,96.46 46.88,101.64 C46.925574,104.050931 46.3431679,106.432249 45.19,108.55 C44.0825178,110.550641 42.4596874,112.218358 40.49,113.38 C42.8849095,114.468577 44.9533831,116.164725 46.49,118.3 C48.1793463,120.722079 49.0324994,123.629119 48.92,126.58 L48.92,126.58 Z M34.6,102.64 C34.7062347,101.021242 34.069471,99.4422149 32.87,98.35 C31.72,97.35 29.82,96.9 27.18,96.9 L11.82,96.9 L11.82,108.29 L27.82,108.29 C30.3533333,108.29 32.1233333,107.763333 33.13,106.71 C34.1359489,105.599308 34.6640489,104.137153 34.6,102.64 L34.6,102.64 Z M36.49,126.75 C36.49,121.57 33.6166667,118.983333 27.87,118.989987 L11.82,118.989987 L11.82,134.6 L27.87,134.6 C30.7966667,134.6 32.9666667,133.896667 34.38,132.49 C35.8404199,130.946791 36.6032239,128.871674 36.49,126.75 L36.49,126.75 Z" id="Shape" fill="#0B0D0D"></path>
            <path d="M101.51,139.82 C97.1966667,144.62 91.1966667,147.02 83.51,147.02 C80.0911957,147.066444 76.695624,146.451845 73.51,145.21 C70.5651018,144.057175 67.9239997,142.243983 65.79,139.91 C63.5476561,137.422938 61.8451766,134.498079 60.79,131.32 C59.5486668,127.53638 58.9503762,123.571437 59.02,119.59 L59.02,85.69 L71.02,85.69 L71.02,119.42 C71.02,124.306667 72.12,128.16 74.32,130.98 C76.4937339,133.784962 79.8949006,135.358747 83.44,135.2 C86.9782794,135.353481 90.3800243,133.821397 92.61,131.07 C94.8433333,128.303333 95.9566667,124.476667 95.95,119.59 L95.95,85.69 L107.950138,85.69 L107.950138,119.42 C107.97,128.22 105.823333,135.02 101.51,139.82 Z" id="Path" fill="#0B0D0D"></path>
            <path d="M167.33,127.82 C167.364153,130.496623 166.896064,133.155915 165.95,135.66 C165.030642,138.004972 163.550852,140.089038 161.64,141.73 C159.476363,143.531191 156.963812,144.865771 154.26,145.65 C150.796952,146.629203 147.208127,147.090865 143.61,147.02 C138.845447,147.08868 134.126198,146.087421 129.8,144.09 C125.912542,142.3512 122.572766,139.58534 120.14,136.09 L128.85,128.32 C130.760246,130.638432 133.203075,132.460261 135.97,133.63 C138.627997,134.692202 141.467733,135.225502 144.33,135.2 C147.95,135.2 150.61,134.69 152.33,133.65 C154.040144,132.584943 155.018418,130.659207 154.87,128.65 C154.892767,127.771522 154.714926,126.899418 154.35,126.1 C153.892499,125.272821 153.222865,124.582476 152.41,124.1 C151.131005,123.312462 149.752004,122.70032 148.31,122.28 C146.53,121.71 144.23,121.1 141.41,120.47 C138.821119,119.888283 136.272487,119.140061 133.78,118.23 C131.619499,117.460017 129.594455,116.352993 127.78,114.95 C126.104312,113.618701 124.773529,111.903775 123.9,109.95 C122.910897,107.573369 122.440417,105.013007 122.52,102.44 C122.477247,99.86777 123.053433,97.3229501 124.2,95.02 C125.310365,92.8481353 126.888182,90.9492904 128.82,89.46 C130.872224,87.8817935 133.197728,86.6953117 135.68,85.96 C142.553335,83.9752886 149.902874,84.441926 156.47,87.28 C160.079012,89.0032999 163.340006,91.3761642 166.09,94.28 L157.33,102.77 C155.530866,100.874295 153.41181,99.3103907 151.07,98.15 C148.735788,97.0609862 146.1855,96.5140075 143.61,96.55 C142.240865,96.5190561 140.874173,96.6806355 139.55,97.03 C138.590874,97.2794016 137.685812,97.7031198 136.88,98.28 C136.251808,98.7191103 135.745888,99.3110719 135.41,100 C135.120932,100.626799 134.974091,101.309781 134.98,102 C134.947207,102.851774 135.140414,103.697056 135.54,104.45 C136.013573,105.205526 136.684331,105.817506 137.48,106.22 C138.657983,106.844297 139.902481,107.334045 141.19,107.68 C142.74,108.14 144.73,108.68 147.14,109.24 C149.55,109.8 151.96,110.49 154.35,111.24 C156.665828,111.98444 158.85191,113.084228 160.83,114.5 C165.16123,117.511278 167.621479,122.552895 167.33,127.82 L167.33,127.82 Z" id="Path" fill="#0B0D0D"></path>
            <polygon id="Path" fill="#0B0D0D" points="180.97 146.08 180.97 85.69 192.97 85.69 192.97 146.08"></polygon>
            <path d="M245.16,146.08 L223.04,113.08 C222.293333,111.933333 221.503333,110.71 220.67,109.41 C219.997769,108.393638 219.380225,107.342144 218.82,106.26 C218.82,106.84 218.82,107.69 218.82,108.81 C218.82,109.93 218.87,111.14 218.87,112.43 C218.87,113.72 218.87,115.01 218.87,116.27 C218.87,117.53 218.87,118.6 218.87,119.47 L218.87,146.04 L206.87,146.04 L206.87,85.69 L218.52,85.69 L239.77,117.61 L242.13,121.27 C242.95,122.57 243.57,123.62 243.97,124.42 C243.97,123.85 243.97,123 243.97,121.87 C243.97,120.74 243.92,119.55 243.92,118.25 C243.92,116.95 243.92,115.68 243.92,114.41 C243.92,113.14 243.92,112.08 243.92,111.22 L243.92,85.69 L255.92,85.69 L255.92,146.08 L245.16,146.08 Z" id="Path" fill="#0B0D0D"></path>
            <polygon id="Path" fill="#0B0D0D" points="273.33 146.08 273.33 85.69 315.13 85.69 315.13 97.5 285.33 97.5 285.33 107.86 302.67 107.86 302.67 119.68 285.33 119.68 285.33 134.26 316.43 134.26 316.43 146.08"></polygon>
            <path d="M370.98,127.82 C371.014153,130.496623 370.546064,133.155915 369.6,135.66 C368.680642,138.004972 367.200852,140.089038 365.29,141.73 C363.127659,143.533121 360.614685,144.867925 357.91,145.65 C354.446952,146.629203 350.858127,147.090865 347.26,147.02 C342.498679,147.088543 337.782713,146.087255 333.46,144.09 C329.568075,142.354037 326.224369,139.587785 323.79,136.09 L332.5,128.32 C334.410246,130.638432 336.853075,132.460261 339.62,133.63 C342.267273,134.695213 345.096493,135.235244 347.95,135.22 C351.57,135.22 354.23,134.71 355.95,133.67 C357.660144,132.604943 358.638418,130.679207 358.49,128.67 C358.512767,127.791522 358.334926,126.919418 357.97,126.12 C357.512499,125.292821 356.842865,124.602476 356.03,124.12 C354.754697,123.332201 353.378962,122.720016 351.94,122.3 C350.15,121.73 347.85,121.12 345.04,120.49 C342.447855,119.908241 339.895899,119.160024 337.4,118.25 C335.239499,117.480017 333.214455,116.372993 331.4,114.97 C329.727097,113.63595 328.396886,111.92176 327.52,109.97 C326.530897,107.593369 326.060417,105.033007 326.14,102.46 C326.097247,99.88777 326.673433,97.3429501 327.82,95.04 C328.93368,92.8703233 330.51094,90.9721488 332.44,89.48 C334.493443,87.9037232 336.818575,86.7174313 339.3,85.98 C346.173335,83.9952886 353.522874,84.461926 360.09,87.3 C363.700422,89.0209321 366.961825,91.3940942 369.71,94.3 L361,102.77 C359.200866,100.874295 357.08181,99.3103907 354.74,98.15 C352.406679,97.0583361 349.855775,96.5112253 347.28,96.55 C345.910922,96.5202407 344.544394,96.6818007 343.22,97.03 C342.260874,97.2794016 341.355812,97.7031198 340.55,98.28 C339.924441,98.7220047 339.419157,99.3132217 339.08,100 C338.790932,100.626799 338.644091,101.309781 338.65,102 C338.520678,103.790628 339.517431,105.473147 341.15,106.22 C342.327983,106.844297 343.572481,107.334045 344.86,107.68 C346.413333,108.14 348.413333,108.66 350.86,109.24 C353.27,109.81 355.67,110.49 358.06,111.24 C360.37052,111.976106 362.553065,113.065692 364.53,114.47 C368.874444,117.484664 371.339905,122.540563 371.04,127.82 L370.98,127.82 Z" id="Path" fill="#0B0D0D"></path>
            <path d="M426.8,127.82 C426.834153,130.496623 426.366064,133.155915 425.42,135.66 C424.500642,138.004972 423.020852,140.089038 421.11,141.73 C418.947659,143.533121 416.434685,144.867925 413.73,145.65 C410.266952,146.629203 406.678127,147.090865 403.08,147.02 C398.318679,147.088543 393.602713,146.087255 389.28,144.09 C385.388075,142.354037 382.044369,139.587785 379.61,136.09 L388.33,128.3 C390.240246,130.618432 392.683075,132.440261 395.45,133.61 C398.097273,134.675213 400.926493,135.215244 403.78,135.2 C407.4,135.2 410.06,134.69 411.78,133.65 C413.493599,132.588112 414.473015,130.660127 414.32,128.65 C414.3411,127.772706 414.166898,126.901694 413.81,126.1 C413.34819,125.272704 412.675341,124.582603 411.86,124.1 C410.584697,123.312201 409.208962,122.700016 407.77,122.28 C405.98,121.71 403.68,121.1 400.87,120.47 C398.277855,119.888241 395.725899,119.140024 393.23,118.23 C391.069499,117.460017 389.044455,116.352993 387.23,114.95 C385.557097,113.61595 384.226886,111.90176 383.35,109.95 C382.360897,107.573369 381.890417,105.013007 381.97,102.44 C381.927247,99.86777 382.503433,97.3229501 383.65,95.02 C384.76368,92.8503233 386.34094,90.9521488 388.27,89.46 C390.323443,87.8837232 392.648575,86.6974313 395.13,85.96 C402.003335,83.9752886 409.352874,84.441926 415.92,87.28 C419.530422,89.0009321 422.791825,91.3740942 425.54,94.28 L416.83,102.75 C415.030866,100.854295 412.91181,99.2903907 410.57,98.13 C408.236679,97.0383361 405.685775,96.4912253 403.11,96.53 C401.740922,96.5002407 400.374394,96.6618007 399.05,97.01 C398.090874,97.2594016 397.185812,97.6831198 396.38,98.26 C395.754441,98.7020047 395.249157,99.2932217 394.91,99.98 C394.620932,100.606799 394.474091,101.289781 394.48,101.98 C394.350678,103.770628 395.347431,105.453147 396.98,106.2 C398.157983,106.824297 399.402481,107.314045 400.69,107.66 C402.25,108.12 404.23,108.66 406.69,109.22 C409.15,109.78 411.5,110.47 413.89,111.22 C416.193076,111.974429 418.36547,113.080865 420.33,114.5 C424.674444,117.514664 427.139905,122.570563 426.84,127.85 L426.8,127.82 Z" id="Path" fill="#0B0D0D"></path>
            <path d="M140.53,225.89 L140.53,203.75 C140.53,202.94 140.53,201.91 140.53,200.65 C140.53,199.39 140.53,198.09 140.53,196.77 C140.53,195.45 140.53,194.21 140.58,193.07 C140.63,191.93 140.58,191.07 140.58,190.48 C140.12,191.626667 139.506667,193.15 138.74,195.05 C137.973333,196.95 137.226667,198.766667 136.5,200.5 L124.33,227.26 L112.1,200.5 C111.3,198.78 110.51,196.973333 109.73,195.08 C108.95,193.186667 108.333333,191.66 107.88,190.5 C107.88,191.08 107.88,191.94 107.88,193.09 C107.88,194.24 107.88,195.47 107.88,196.79 C107.88,198.11 107.88,199.4 107.88,200.67 C107.88,201.94 107.88,202.96 107.88,203.77 L107.88,225.91 L96.25,225.91 L96.25,165.61 L107.88,165.61 L120.46,192.91 C120.86,193.77 121.26,194.68 121.67,195.63 C122.08,196.58 122.45,197.51 122.83,198.43 L123.83,201.01 C124.15,201.81 124.39,202.47 124.56,203.01 C124.96,201.86 125.56,200.33 126.28,198.4 C127,196.47 127.79,194.66 128.59,192.93 L140.67,165.63 L152.67,165.63 L152.67,225.93 L140.53,225.89 Z" id="Path" fill="#0B0D0D"></path>
            <path d="M216.33,195.73 C216.37634,200.004917 215.779671,204.262505 214.56,208.36 C213.512578,211.933881 211.772942,215.267053 209.44,218.17 C207.212384,220.889567 204.398976,223.070556 201.21,224.55 C194.1434,227.591641 186.1366,227.591641 179.07,224.55 C175.881024,223.070556 173.067616,220.889567 170.84,218.17 C168.503317,215.2695 166.763275,211.935551 165.72,208.36 C163.359735,200.112203 163.359735,191.367797 165.72,183.12 C166.76767,179.540143 168.507156,176.200468 170.84,173.29 C173.070868,170.576295 175.88364,168.399215 179.07,166.92 C186.1366,163.878359 194.1434,163.878359 201.21,166.92 C204.39636,168.399215 207.209132,170.576295 209.44,173.29 C211.769162,176.202868 213.508253,179.541785 214.56,183.12 C215.779022,187.210789 216.375698,191.461689 216.33,195.73 L216.33,195.73 Z M203.92,195.73 C203.93489,193.199612 203.676729,190.675003 203.15,188.2 C202.699082,186.042866 201.865964,183.983776 200.69,182.12 C199.607296,180.449861 198.126164,179.075261 196.38,178.12 C192.447359,176.159951 187.822641,176.159951 183.89,178.12 C182.147487,179.076601 180.669906,180.451096 179.59,182.12 C178.414036,183.983776 177.580918,186.042866 177.13,188.2 C176.090144,193.169519 176.090144,198.300481 177.13,203.27 C177.578937,205.424611 178.412237,207.480761 179.59,209.34 C180.663485,211.027201 182.141599,212.419378 183.89,213.39 C187.822641,215.350049 192.447359,215.350049 196.38,213.39 C198.133573,212.422806 199.615707,211.030082 200.69,209.34 C201.867763,207.480761 202.701063,205.424611 203.15,203.27 C203.661503,200.79003 203.90291,198.261956 203.87,195.73 L203.92,195.73 Z" id="Shape" fill="#0B0D0D"></path>
            <path d="M255.17,225.89 L243.46,225.89 L222.01,165.59 L235.33,165.59 L246.73,200.5 C247.02,201.37 247.31,202.26 247.59,203.17 C247.87,204.08 248.15,205 248.41,205.89 C248.67,206.78 248.9,207.63 249.1,208.43 C249.3,209.23 249.46,209.89 249.57,210.43 C249.86,209.28 250.25,207.79 250.74,205.95 C251.23,204.11 251.74,202.3 252.33,200.52 L263.44,165.64 L276.62,165.64 L255.17,225.89 Z" id="Path" fill="#0B0D0D"></path>
            <polygon id="Path" fill="#0B0D0D" points="287.16 225.89 287.16 165.59 299.16 165.59 299.16 225.89"></polygon>
            <path d="M352.69,225.89 L330.6,192.98 L328.24,189.32 C327.567769,188.303638 326.950225,187.252144 326.39,186.17 C326.39,186.75 326.39,187.6 326.44,188.71 C326.49,189.82 326.44,191.04 326.44,192.33 C326.44,193.62 326.44,194.9 326.44,196.17 C326.44,197.44 326.49,198.49 326.49,199.36 L326.49,225.89 L314.49,225.89 L314.49,165.59 L326.12,165.59 L347.44,197.5 C348.18,198.65 348.97,199.87 349.79,201.16 C350.61,202.45 351.23,203.5 351.64,204.3 C351.64,203.73 351.64,202.88 351.59,201.76 C351.54,200.64 351.59,199.44 351.59,198.14 C351.59,196.84 351.59,195.57 351.59,194.31 C351.59,193.05 351.54,191.99 351.54,191.12 L351.54,165.59 L363.54,165.59 L363.54,225.89 L352.69,225.89 Z" id="Path" fill="#0B0D0D"></path>
            <path d="M424.33,212.96 C423.226728,215.822117 421.521611,218.413895 419.33,220.56 C417.138221,222.65158 414.522481,224.247625 411.66,225.24 C408.54627,226.326445 405.26765,226.864423 401.97,226.83 C398.264348,226.882303 394.590949,226.135345 391.2,224.64 C388.008546,223.185611 385.172658,221.052723 382.89,218.39 C380.472229,215.518405 378.644065,212.198487 377.51,208.62 C376.189419,204.453049 375.547887,200.100762 375.61,195.73 C375.567939,191.444483 376.243958,187.182186 377.61,183.12 C378.806883,179.52156 380.680496,176.185036 383.13,173.29 C385.453553,170.585537 388.332097,168.412986 391.57,166.92 C394.947498,165.384474 398.619987,164.606289 402.33,164.64 C405.106614,164.586524 407.876986,164.923143 410.56,165.64 C412.825727,166.271474 414.966643,167.286126 416.89,168.64 C418.732739,169.962712 420.347288,171.577261 421.67,173.42 C423.062279,175.363417 424.232885,177.45642 425.16,179.66 L413.73,184.5 C413.171209,183.433209 412.553591,182.398282 411.88,181.4 C411.243035,180.44978 410.460066,179.606063 409.56,178.9 C408.610759,178.180815 407.545358,177.629512 406.41,177.27 C405.046126,176.837394 403.620552,176.631327 402.19,176.66 C400.103811,176.634107 398.043279,177.121766 396.19,178.08 C394.402544,179.041985 392.867548,180.412517 391.71,182.08 C390.44316,183.901469 389.508744,185.932807 388.95,188.08 C387.696485,193.12666 387.696485,198.40334 388.95,203.45 C389.508115,205.616438 390.449639,207.665437 391.73,209.5 C392.910805,211.174624 394.456291,212.559407 396.25,213.55 C398.094416,214.536066 400.158735,215.038384 402.25,215.01 C404.024953,215.049185 405.79545,214.816491 407.5,214.32 C408.784239,213.944718 409.973918,213.300451 410.99,212.43 C411.87781,211.624961 412.583536,210.639672 413.06,209.54 C413.561597,208.372329 413.898162,207.140501 414.06,205.88 L404.5,205.88 L404.5,194.7 L426.12,194.7 L426.12,202.6 C426.192649,206.136126 425.584959,209.653258 424.33,212.96 L424.33,212.96 Z" id="Path" fill="#0B0D0D"></path>
            <polygon id="Path" fill="#DE1E2A" points="586.32 120.14 473.61 0 473.61 240.27"></polygon>
            <polygon id="Path" fill="#DE1E2A" points="704.55 120.14 591.85 0 591.85 240.27"></polygon>
        </g>
    </g>
</svg>
