<svg class="covid__logos" width="285" height="74" viewBox="0 0 285 74" fill="none" xmlns="http://www.w3.org/2000/svg" aria-hidden="true">
<g clip-path="url(#clip0)">
<path d="M25.6894 0C11.5013 0 0 11.5015 0 25.6891C0 39.8767 11.5013 51.3783 25.6894 51.3783C39.877 51.3783 51.3787 39.8767 51.3787 25.6891C51.3787 11.5015 39.877 0 25.6894 0ZM32.907 15.6049C33.2193 14.9179 33.9728 14.5725 34.7012 14.6581C35.0872 14.7036 35.4144 14.8346 35.706 15.0939C35.8085 15.1853 35.9608 15.3834 36.0183 15.4924C36.0655 15.5815 36.105 15.6747 36.1387 15.7697C36.1792 15.8841 36.181 15.889 36.2016 15.9993C36.2758 16.3906 36.2484 16.7688 36.1064 17.1177C36.0264 17.314 35.9608 17.4256 35.8282 17.5832C35.7595 17.6647 35.7465 17.6796 35.6602 17.7498C35.6256 17.7782 35.5892 17.8052 35.5523 17.8304C35.5276 17.8475 35.5024 17.8646 35.4773 17.8804C35.4714 17.8835 35.4557 17.893 35.4472 17.8979C35.351 17.9502 35.2477 17.9925 35.1439 18.0271C35.0329 18.0645 35.0153 18.0695 34.8751 18.0915C34.6352 18.1294 34.4963 18.1312 34.2694 18.1023C33.8443 18.0483 33.4871 17.8961 33.1698 17.6071C32.9285 17.3239 32.7982 17.0186 32.7533 16.6756C32.7047 16.3073 32.7506 15.948 32.907 15.6049ZM29.5494 12.3367C29.623 12.0373 29.761 11.7937 29.9924 11.5898C30.2135 11.4403 30.4427 11.3714 30.6907 11.3678C30.9576 11.3633 31.2102 11.4259 31.4416 11.5655C31.9062 11.8451 32.0905 12.4124 31.9705 12.9274C31.9062 13.1998 31.7863 13.4231 31.5778 13.6104C31.5041 13.6766 31.3504 13.7693 31.2681 13.8013C31.2007 13.8279 31.1311 13.8486 31.0605 13.8652C30.9761 13.8841 30.9725 13.8855 30.892 13.8918C30.6067 13.9125 30.3393 13.8616 30.1025 13.7324C29.9691 13.659 29.8949 13.6032 29.7929 13.4951C29.7408 13.4398 29.7313 13.429 29.6878 13.361C29.6707 13.334 29.6545 13.3061 29.6392 13.2777C29.6293 13.2588 29.619 13.2394 29.6096 13.2196C29.6078 13.216 29.6028 13.2034 29.5997 13.1971C29.57 13.1237 29.5489 13.0463 29.5323 12.9693C29.5148 12.8864 29.513 12.8738 29.5085 12.7716C29.5013 12.5965 29.5107 12.4961 29.5494 12.3367ZM29.7628 16.1565C29.7628 17.3266 28.8164 18.2743 27.649 18.2743C26.4811 18.2743 25.5352 17.3261 25.5352 16.1565C25.5352 14.9872 26.4816 14.0386 27.649 14.0386C28.8169 14.0386 29.7628 14.9872 29.7628 16.1565ZM24.7583 7.93303C25.9486 7.93303 26.9139 8.90057 26.9139 10.0932C26.9139 11.2859 25.9486 12.253 24.7583 12.253C23.5679 12.253 22.6027 11.2859 22.6027 10.0932C22.6027 8.90057 23.5679 7.93303 24.7583 7.93303ZM23.102 16.685C23.102 18.0645 21.9858 19.182 20.6098 19.182C19.2339 19.182 18.1177 18.0645 18.1177 16.685C18.1177 15.3064 19.2339 14.1885 20.6098 14.1885C21.9858 14.1885 23.102 15.3064 23.102 16.685ZM18.8681 7.59671C20.244 7.59671 21.3602 8.71417 21.3602 10.0932C21.3602 11.4727 20.244 12.5902 18.8681 12.5902C17.4922 12.5902 16.376 11.4727 16.376 10.0932C16.376 8.71417 17.4922 7.59671 18.8681 7.59671ZM17.9622 21.5578C17.9622 22.728 17.0158 23.6757 15.8484 23.6757C14.6805 23.6757 13.7346 22.7275 13.7346 21.5578C13.7346 20.3886 14.681 19.44 15.8484 19.44C17.0158 19.44 17.9622 20.3886 17.9622 21.5578ZM14.9843 13.2327C16.1747 13.2327 17.1399 14.2002 17.1399 15.3929C17.1399 16.5855 16.1747 17.5526 14.9843 17.5526C13.794 17.5526 12.8287 16.5855 12.8287 15.3929C12.8287 14.2002 13.794 13.2327 14.9843 13.2327ZM12.8723 28.278C13.1743 27.721 13.6758 27.3163 14.2838 27.1375L22.7357 24.6095C22.649 24.5703 22.5672 24.5298 22.485 24.4888C21.9264 24.198 21.5049 23.886 21.2209 23.5555C20.8435 23.1494 20.6121 22.6051 20.6121 22.0063C20.6121 21.2265 21.0039 20.5385 21.6016 20.1288C22.4243 19.4832 23.8641 19.5831 26.0794 20.4471C26.1724 20.4791 26.2973 20.5246 26.4236 20.5804C27.9869 21.2143 31.735 21.5196 34.1975 21.6546C34.2856 21.6596 35.8961 21.7586 35.9806 21.7631L36.7912 24.5456C33.9153 24.3331 31.7948 24.0107 30.8583 23.6343C30.7406 23.5839 30.6134 23.5348 30.4773 23.4866C29.1171 22.9581 28.0233 22.7014 27.1345 22.7014C27.0702 22.7014 27.0073 22.7032 26.9453 22.7059C25.2548 22.7311 23.8919 24.1115 23.8919 25.8112C23.8919 26.4406 24.0793 27.0259 24.4002 27.5153L23.8582 27.681C23.8299 27.6823 23.8003 27.6873 23.7724 27.6967L20.4076 28.7354L13.8811 30.7502C13.3837 30.9041 12.8494 30.6295 12.6989 30.1315C12.6975 30.1288 12.6971 30.1248 12.6957 30.1216C12.5043 29.4774 12.5699 28.8367 12.8723 28.278ZM11.6631 35.4118C11.6626 35.4105 11.6613 35.41 11.6595 35.4087C11.1679 35.1255 10.8246 34.7099 10.683 34.2372C10.5091 33.6582 10.4575 32.5646 11.3171 32.2958C13.3338 31.6664 17.7878 30.2986 17.7878 30.2986C17.1421 30.58 16.6087 31.0658 16.265 31.6974C15.857 32.452 15.772 33.3304 16.025 34.1732C16.025 34.1732 16.0277 34.1827 16.0286 34.1863C16.0457 34.2412 16.065 34.2935 16.0866 34.3457L12.4113 35.4798C12.1623 35.5581 11.8909 35.5388 11.6631 35.4118ZM39.1786 39.047C38.9167 39.2415 35.7559 41.254 34.2712 41.7177C32.747 42.1936 28.1554 43.5596 28.1554 43.5596C27.618 43.7203 26.4245 43.8617 25.6736 43.6974C24.9416 43.5362 24.2379 43.2399 23.6924 42.8622C23.6619 42.8415 23.6331 42.8185 23.6075 42.7947C23.4462 42.6398 23.3024 42.4372 23.1914 42.2089C23.1662 42.1571 23.1649 42.0977 23.1878 42.045C23.2103 41.9937 23.2534 41.9545 23.3069 41.9383L30.0549 39.8551C30.1137 39.8376 30.165 39.8065 30.2077 39.7633C30.3056 39.6656 30.3416 39.5229 30.3011 39.3905C30.2521 39.2302 30.1043 39.1271 29.9452 39.1271C29.9093 39.1271 29.8724 39.1325 29.8365 39.1433L21.0592 41.8537C20.7172 41.9586 20.3627 41.9852 20.0324 41.9307H20.0279C19.2226 41.7992 18.8492 41.3683 18.5765 41.0541C18.5261 40.996 18.4718 40.9343 18.4116 40.874C18.2399 40.6723 18.1064 40.4647 18.0143 40.2563C17.951 40.1131 17.9528 39.9483 18.0184 39.8038C18.0867 39.6548 18.2152 39.5422 18.3716 39.4945L29.2429 36.1376C29.3022 36.12 29.3543 36.0894 29.397 36.0466C29.4941 35.9494 29.53 35.8062 29.49 35.6734C29.4289 35.4771 29.2204 35.3668 29.0254 35.4271L16.5247 39.2856C16.2731 39.3639 16.0043 39.3392 15.7869 39.2185C15.7855 39.2172 15.7837 39.2163 15.7815 39.2149C15.2966 38.9349 14.9515 38.5211 14.8104 38.0502C14.6644 37.5639 14.7722 36.9786 14.907 36.6184C14.9722 36.4446 15.1744 36.2056 15.4777 36.111C18.1873 35.2678 28.1065 32.2125 28.1065 32.2125C28.164 32.1949 28.217 32.163 28.2588 32.1207C28.3572 32.0225 28.3927 31.8798 28.3509 31.7479C28.3226 31.6529 28.2588 31.575 28.1716 31.5286C28.0835 31.4818 27.9829 31.4719 27.8876 31.5016C27.8876 31.5016 22.7025 33.0963 19.3992 34.1197C19.3417 34.1377 18.5136 34.3943 18.4569 34.4119C17.8728 34.592 17.0639 34.682 16.7494 33.6915C16.5939 33.2021 16.6941 32.6618 16.9992 32.0986C17.3007 31.5444 17.7995 31.1414 18.4039 30.964L26.8559 28.436L26.8847 28.4274L26.8572 28.4148C26.7651 28.3734 26.6793 28.3306 26.6079 28.2946C25.9698 27.9628 25.8709 27.8381 25.6903 27.7012C25.1438 27.2726 24.7924 26.6063 24.7924 25.8575C24.7924 24.7693 25.5334 23.8549 26.5373 23.5924C27.387 23.4204 28.5832 23.6469 30.1928 24.2745C30.2787 24.3042 30.4072 24.3502 30.5366 24.4073C32.1457 25.0597 36.1001 25.3609 38.3141 25.4825C38.3491 25.4843 38.6259 25.5014 38.9517 25.5212C39.4213 25.55 40.0019 25.5856 40.0899 25.5905L43.2399 36.4064C42.0496 36.9295 39.4698 38.8313 39.1786 39.047Z" fill="white"/>
</g>
<path d="M10.9782 66.2812H6.04852V71H3.78289V59.7969H6.04852V64.2344H10.9782V59.7969H13.2516V71H10.9782V66.2812ZM18.0563 67.6016C17.7907 67.6432 17.5772 67.737 17.4157 67.8828C17.2542 68.0234 17.1735 68.2161 17.1735 68.4609C17.1735 68.7318 17.2725 68.9661 17.4704 69.1641C17.6683 69.3568 17.96 69.4531 18.3454 69.4531C18.7516 69.4531 19.072 69.3359 19.3063 69.1016C19.5407 68.8672 19.6579 68.5573 19.6579 68.1719V67.3281L18.0563 67.6016ZM20.0095 70.2109C19.9209 70.3099 19.8115 70.4167 19.6813 70.5312C19.5563 70.6406 19.4053 70.7422 19.2282 70.8359C19.0563 70.9245 18.8532 71 18.6188 71.0625C18.3845 71.125 18.1214 71.1562 17.8298 71.1562C17.4131 71.1562 17.0277 71.0911 16.6735 70.9609C16.3246 70.8255 16.0173 70.638 15.7516 70.3984C15.486 70.1589 15.2777 69.8828 15.1266 69.5703C14.9756 69.2526 14.9001 68.9089 14.9001 68.5391C14.9001 67.8672 15.1084 67.3177 15.5251 66.8906C15.9417 66.4635 16.5173 66.1953 17.2516 66.0859L19.6579 65.7344V65.5781C19.6579 65.2031 19.5433 64.9062 19.3141 64.6875C19.085 64.4688 18.7126 64.3594 18.197 64.3594C17.9834 64.3594 17.7673 64.3854 17.5485 64.4375C17.3298 64.4844 17.1188 64.5391 16.9157 64.6016C16.7178 64.6641 16.5329 64.737 16.361 64.8203C16.1891 64.8984 16.0381 64.9688 15.9079 65.0312L15.0641 63.3828C15.5433 63.1172 16.0746 62.8984 16.6579 62.7266C17.2464 62.5547 17.8558 62.4688 18.486 62.4688C18.8714 62.4688 19.2595 62.5104 19.6501 62.5938C20.0459 62.6719 20.4027 62.8177 20.7204 63.0312C21.0433 63.2448 21.3063 63.5365 21.5095 63.9062C21.7126 64.2708 21.8141 64.737 21.8141 65.3047V68.7422C21.8141 68.987 21.8766 69.1693 22.0016 69.2891C22.1318 69.4036 22.3089 69.5104 22.5329 69.6094L21.5563 71.1562C21.1605 71.1146 20.8428 71.013 20.6032 70.8516C20.3636 70.6849 20.1657 70.4714 20.0095 70.2109ZM23.6188 62.6328H25.7751V63.3516C25.8897 63.237 26.0173 63.1276 26.1579 63.0234C26.3037 62.9141 26.4626 62.8203 26.6345 62.7422C26.8063 62.6589 26.9964 62.5938 27.2048 62.5469C27.4183 62.4948 27.6527 62.4688 27.9079 62.4688C28.361 62.4688 28.7673 62.5443 29.1266 62.6953C29.486 62.8411 29.7881 63.0443 30.0329 63.3047C30.2829 63.5651 30.473 63.8698 30.6032 64.2188C30.7334 64.5677 30.7985 64.9453 30.7985 65.3516V71H28.6423V66.1328C28.6423 65.8359 28.6084 65.5859 28.5407 65.3828C28.473 65.1745 28.3792 65.0078 28.2595 64.8828C28.1449 64.7526 28.0068 64.6589 27.8454 64.6016C27.6891 64.5391 27.5173 64.5078 27.3298 64.5078C27.111 64.5078 26.9053 64.5469 26.7126 64.625C26.5251 64.7031 26.361 64.8229 26.2204 64.9844C26.0798 65.1406 25.9704 65.3385 25.8923 65.5781C25.8141 65.8177 25.7751 66.099 25.7751 66.4219V71H23.6188V62.6328ZM37.9782 71V70.2812C37.8636 70.4062 37.736 70.5234 37.5954 70.6328C37.46 70.737 37.3063 70.8281 37.1345 70.9062C36.9678 70.9844 36.7829 71.0443 36.5798 71.0859C36.3818 71.1328 36.1605 71.1562 35.9157 71.1562C35.3636 71.1562 34.8584 71.0469 34.4001 70.8281C33.9417 70.6094 33.5485 70.3073 33.2204 69.9219C32.8923 69.5365 32.6371 69.0781 32.4548 68.5469C32.2777 68.0156 32.1891 67.4401 32.1891 66.8203C32.1891 66.2005 32.2777 65.625 32.4548 65.0938C32.6318 64.5625 32.8792 64.1042 33.197 63.7188C33.5199 63.3281 33.9079 63.0234 34.361 62.8047C34.8141 62.5807 35.3167 62.4688 35.8688 62.4688C36.3584 62.4688 36.7725 62.5547 37.111 62.7266C37.4548 62.8932 37.7438 63.1016 37.9782 63.3516V59.7969H40.1345V71H37.9782ZM38.0407 66.0391C38.0407 65.8151 37.999 65.6068 37.9157 65.4141C37.8376 65.2214 37.723 65.0547 37.572 64.9141C37.4209 64.7734 37.2386 64.6641 37.0251 64.5859C36.8167 64.5078 36.5798 64.4688 36.3141 64.4688C36.0068 64.4688 35.7334 64.526 35.4938 64.6406C35.2595 64.7552 35.0615 64.9167 34.9001 65.125C34.7386 65.3281 34.6162 65.5703 34.5329 65.8516C34.4496 66.1328 34.4079 66.4401 34.4079 66.7734V66.875C34.4079 67.2083 34.4496 67.5156 34.5329 67.7969C34.6162 68.0729 34.7386 68.3125 34.9001 68.5156C35.0615 68.7188 35.2595 68.8776 35.4938 68.9922C35.7334 69.1016 36.0068 69.1562 36.3141 69.1562C36.5798 69.1562 36.8167 69.1172 37.0251 69.0391C37.2386 68.9609 37.4209 68.8516 37.572 68.7109C37.723 68.5703 37.8376 68.4062 37.9157 68.2188C37.999 68.026 38.0407 67.8177 38.0407 67.5938V66.0391ZM42.5876 68.3281C42.8949 68.6042 43.2621 68.8411 43.6891 69.0391C44.1162 69.237 44.5485 69.3359 44.986 69.3359C45.3037 69.3359 45.5537 69.276 45.736 69.1562C45.9183 69.0312 46.0095 68.8724 46.0095 68.6797C46.0095 68.3516 45.6579 68.0964 44.9548 67.9141L44.3454 67.75C44.0433 67.6771 43.7386 67.5781 43.4313 67.4531C43.124 67.3229 42.8402 67.1536 42.5798 66.9453C42.3246 66.737 42.1162 66.4844 41.9548 66.1875C41.7985 65.8854 41.7204 65.5156 41.7204 65.0781C41.7204 64.7292 41.7959 64.3984 41.947 64.0859C42.1032 63.7682 42.322 63.4896 42.6032 63.25C42.8897 63.0104 43.236 62.8203 43.6423 62.6797C44.0485 62.5391 44.5016 62.4688 45.0016 62.4688C45.7152 62.4688 46.3506 62.5807 46.9079 62.8047C47.4704 63.0286 47.9131 63.2812 48.236 63.5625L47.111 65C46.8454 64.8073 46.5303 64.6432 46.1657 64.5078C45.8063 64.3672 45.4443 64.2969 45.0798 64.2969C44.7412 64.2969 44.4782 64.3594 44.2907 64.4844C44.1032 64.6042 44.0095 64.75 44.0095 64.9219C44.0095 65.1042 44.0902 65.2526 44.2516 65.3672C44.4183 65.4766 44.6579 65.5729 44.9704 65.6562L45.8766 65.9141C46.7412 66.1589 47.361 66.4896 47.736 66.9062C48.111 67.3229 48.2985 67.849 48.2985 68.4844C48.2985 68.8385 48.2256 69.1771 48.0798 69.5C47.9339 69.8177 47.7204 70.1016 47.4391 70.3516C47.1579 70.6016 46.8089 70.7995 46.3923 70.9453C45.9756 71.0859 45.5016 71.1562 44.9704 71.1562C44.5641 71.1562 44.1813 71.1198 43.822 71.0469C43.4678 70.974 43.1371 70.875 42.8298 70.75C42.5277 70.6198 42.2542 70.474 42.0095 70.3125C41.7647 70.151 41.5563 69.9896 41.3845 69.8281L42.5876 68.3281Z" fill="white"/>
<g clip-path="url(#clip1)">
<path d="M87.9498 32.072L89.4151 31.8146C88.2976 29.6734 87.3427 26.8456 87.1594 24.77C87.0043 23.013 87.0434 21.5481 87.5773 20.2683L85.9277 20.5586C82.7921 21.1086 80.6886 24.1072 81.2395 27.2428L81.2647 27.3839C81.8151 30.5182 84.8142 32.6221 87.9498 32.072ZM122.139 27.2428C122.689 24.1072 120.586 21.1086 117.45 20.5586L115.801 20.2683C116.335 21.5481 116.374 23.013 116.22 24.77C116.036 26.8456 115.081 29.6734 113.964 31.8146L115.429 32.072C118.565 32.6221 121.564 30.5182 122.114 27.3839L122.139 27.2428ZM123.423 27.4684L123.397 27.6095C122.722 31.4591 119.053 34.0312 115.203 33.3554L113.271 33.0175C112.832 33.7005 112.387 34.2456 111.971 34.57C110.233 35.9208 105.962 39.3975 101.689 39.2519C97.4169 39.3975 93.1453 35.9213 91.408 34.57C90.9915 34.246 90.5466 33.7005 90.1076 33.0175L88.1754 33.3554C84.3257 34.0317 80.6567 31.4591 79.9813 27.6095L79.9562 27.4684C79.2803 23.6187 81.8533 19.9506 85.703 19.2743L88.5074 18.7818C88.9631 18.257 89.5486 17.7618 90.2968 17.2868C94.3037 14.8747 99.1792 12.2675 101.689 12.1228C104.199 12.2675 109.075 14.8747 113.082 17.2868C113.83 17.7622 114.415 18.257 114.872 18.7818L117.676 19.2743C121.525 19.9506 124.098 23.6187 123.423 27.4684ZM127.378 25.6894C127.378 11.5013 115.877 0 101.689 0C87.5018 0 76 11.5013 76 25.6894C76 39.8774 87.5013 51.3787 101.689 51.3787C115.877 51.3787 127.378 39.877 127.378 25.6894Z" fill="white"/>
</g>
<path d="M85.4235 59.7969H92.9704V61.8516H87.6891V64.2344H92.5563V66.2812H87.6891V71H85.4235V59.7969ZM97.0876 67.6016C96.822 67.6432 96.6084 67.737 96.447 67.8828C96.2855 68.0234 96.2048 68.2161 96.2048 68.4609C96.2048 68.7318 96.3037 68.9661 96.5016 69.1641C96.6996 69.3568 96.9912 69.4531 97.3766 69.4531C97.7829 69.4531 98.1032 69.3359 98.3376 69.1016C98.572 68.8672 98.6891 68.5573 98.6891 68.1719V67.3281L97.0876 67.6016ZM99.0407 70.2109C98.9522 70.3099 98.8428 70.4167 98.7126 70.5312C98.5876 70.6406 98.4365 70.7422 98.2595 70.8359C98.0876 70.9245 97.8845 71 97.6501 71.0625C97.4157 71.125 97.1527 71.1562 96.861 71.1562C96.4443 71.1562 96.0589 71.0911 95.7048 70.9609C95.3558 70.8255 95.0485 70.638 94.7829 70.3984C94.5173 70.1589 94.3089 69.8828 94.1579 69.5703C94.0068 69.2526 93.9313 68.9089 93.9313 68.5391C93.9313 67.8672 94.1397 67.3177 94.5563 66.8906C94.973 66.4635 95.5485 66.1953 96.2829 66.0859L98.6891 65.7344V65.5781C98.6891 65.2031 98.5746 64.9062 98.3454 64.6875C98.1162 64.4688 97.7438 64.3594 97.2282 64.3594C97.0147 64.3594 96.7985 64.3854 96.5798 64.4375C96.361 64.4844 96.1501 64.5391 95.947 64.6016C95.749 64.6641 95.5641 64.737 95.3923 64.8203C95.2204 64.8984 95.0693 64.9688 94.9391 65.0312L94.0954 63.3828C94.5746 63.1172 95.1058 62.8984 95.6891 62.7266C96.2777 62.5547 96.8871 62.4688 97.5173 62.4688C97.9027 62.4688 98.2907 62.5104 98.6813 62.5938C99.0772 62.6719 99.4339 62.8177 99.7516 63.0312C100.075 63.2448 100.338 63.5365 100.541 63.9062C100.744 64.2708 100.845 64.737 100.845 65.3047V68.7422C100.845 68.987 100.908 69.1693 101.033 69.2891C101.163 69.4036 101.34 69.5104 101.564 69.6094L100.588 71.1562C100.192 71.1146 99.874 71.013 99.6345 70.8516C99.3949 70.6849 99.197 70.4714 99.0407 70.2109ZM104.439 66.8594C104.439 67.1302 104.476 67.4036 104.549 67.6797C104.621 67.9505 104.733 68.1953 104.884 68.4141C105.035 68.6328 105.228 68.8125 105.463 68.9531C105.702 69.0885 105.986 69.1562 106.314 69.1562C106.528 69.1562 106.72 69.1276 106.892 69.0703C107.069 69.013 107.226 68.9349 107.361 68.8359C107.502 68.7318 107.624 68.612 107.728 68.4766C107.838 68.3359 107.931 68.1849 108.009 68.0234L109.9 69C109.765 69.3281 109.577 69.625 109.338 69.8906C109.103 70.1562 108.83 70.3828 108.517 70.5703C108.205 70.7578 107.858 70.901 107.478 71C107.098 71.1042 106.694 71.1562 106.267 71.1562C105.679 71.1562 105.137 71.0469 104.642 70.8281C104.147 70.6042 103.72 70.2995 103.361 69.9141C103.002 69.5286 102.72 69.0729 102.517 68.5469C102.314 68.0156 102.213 67.4401 102.213 66.8203C102.213 66.2057 102.314 65.6328 102.517 65.1016C102.72 64.5703 103.002 64.1094 103.361 63.7188C103.72 63.3281 104.147 63.0234 104.642 62.8047C105.137 62.5807 105.679 62.4688 106.267 62.4688C106.694 62.4688 107.098 62.5208 107.478 62.625C107.858 62.724 108.205 62.8698 108.517 63.0625C108.83 63.25 109.103 63.4766 109.338 63.7422C109.577 64.0078 109.765 64.3047 109.9 64.6328L108.009 65.6094C107.931 65.4479 107.838 65.2995 107.728 65.1641C107.624 65.0234 107.502 64.9036 107.361 64.8047C107.226 64.7005 107.069 64.6198 106.892 64.5625C106.72 64.5 106.528 64.4688 106.314 64.4688C105.986 64.4688 105.702 64.5391 105.463 64.6797C105.228 64.8151 105.035 64.9948 104.884 65.2188C104.733 65.4375 104.621 65.6849 104.549 65.9609C104.476 66.237 104.439 66.513 104.439 66.7891V66.8594ZM113.033 67.5625C113.069 67.8125 113.147 68.0417 113.267 68.25C113.392 68.4583 113.549 68.638 113.736 68.7891C113.924 68.9349 114.14 69.0495 114.384 69.1328C114.629 69.2161 114.89 69.2578 115.166 69.2578C115.483 69.2578 115.827 69.1979 116.197 69.0781C116.567 68.9531 116.905 68.7734 117.213 68.5391L118.252 70.0547C117.861 70.3828 117.382 70.6484 116.814 70.8516C116.246 71.0547 115.642 71.1562 115.002 71.1562C114.424 71.1562 113.879 71.0573 113.369 70.8594C112.858 70.6615 112.41 70.375 112.025 70C111.645 69.625 111.343 69.1693 111.119 68.6328C110.9 68.0964 110.791 67.4922 110.791 66.8203C110.791 66.2057 110.887 65.6328 111.08 65.1016C111.278 64.5703 111.551 64.1094 111.9 63.7188C112.254 63.3281 112.676 63.0234 113.166 62.8047C113.655 62.5807 114.197 62.4688 114.791 62.4688C115.343 62.4688 115.856 62.5703 116.33 62.7734C116.804 62.9714 117.215 63.2526 117.564 63.6172C117.913 63.9766 118.187 64.4089 118.384 64.9141C118.582 65.4193 118.681 65.9766 118.681 66.5859V67.5625H113.033ZM114.783 64.3438C114.319 64.3438 113.926 64.5 113.603 64.8125C113.285 65.1198 113.101 65.4922 113.049 65.9297H116.424C116.413 65.487 116.252 65.112 115.939 64.8047C115.627 64.4974 115.241 64.3438 114.783 64.3438Z" fill="white"/>
<g clip-path="url(#clip2)">
<path d="M200.848 26.3634C201.007 26.7368 201.05 27.2437 200.722 27.5407C200.38 27.8611 199.823 27.6225 199.646 27.2365C199.208 25.8974 198.845 24.504 198.435 23.1545C198.346 22.8553 197.985 22.8746 198.013 23.1096C198.629 25.3941 199.952 29.9848 199.952 29.9848H197.919C197.919 29.9848 197.919 33.6695 197.919 35.6337C197.919 36.0579 197.51 36.3751 197.061 36.3657C196.669 36.3576 196.234 36.0062 196.234 35.6337C196.234 32.6508 196.234 29.9848 196.234 29.9848H195.785C195.785 29.9848 195.785 34.9727 195.785 35.6337C195.785 36.0453 195.397 36.3702 194.96 36.3702C194.552 36.3702 194.122 36.0934 194.122 35.7011C194.122 33.8493 194.122 29.9848 194.122 29.9848H192.05C192.05 29.9848 193.398 25.3267 194.032 23.1096C194.113 22.8252 193.718 22.8849 193.641 23.1545C193.225 24.4042 192.889 25.5352 192.504 26.7979C192.44 27.201 192.165 27.6508 191.727 27.6899C191.27 27.7357 190.971 27.2374 191.032 26.8253C191.621 24.7273 192.249 22.6369 192.869 20.5478C193.033 19.9632 193.493 19.3278 194.141 19.3278C195.333 19.3278 196.526 19.3278 197.718 19.3278C198.345 19.3278 198.846 19.7781 199.054 20.32C199.685 22.3246 200.245 24.3507 200.848 26.3634ZM197.972 16.9754C197.972 18.0655 197.09 18.9494 196.001 18.9494C195.479 18.9494 194.977 18.7409 194.607 18.3711C194.238 18.0008 194.03 17.4994 194.03 16.9754C194.03 16.4515 194.237 15.9491 194.607 15.5793C194.977 15.209 195.479 15.0014 196.001 15.0014C197.09 15.0009 197.972 15.8848 197.972 16.9754ZM189.372 25.6894L185.044 30.018V27.3893H168.745V30.018L164.416 25.6894L168.745 21.3607V23.9894H185.044V21.3607L189.372 25.6894ZM162.753 26.8999C162.753 27.4239 162.71 27.8346 162.295 28.0314C161.894 28.2336 161.319 27.9631 161.319 27.0195C161.319 25.5847 161.319 23.4695 161.319 23.0651C161.319 22.849 160.869 22.8764 160.869 23.0593C160.869 24.0088 160.869 35.063 160.869 35.6543C160.869 36.1482 160.3 36.3711 159.833 36.3693C159.386 36.3679 158.802 36.1284 158.802 35.675C158.802 32.4567 158.802 28.7594 158.802 28.1878C158.802 27.9393 158.391 27.9631 158.353 28.1878C158.32 30.7833 158.353 34.5687 158.353 35.6467C158.353 36.141 157.754 36.3693 157.28 36.3693C156.826 36.3693 156.286 36.1023 156.286 35.6328C156.286 33.8946 156.286 24.2334 156.286 23.0224C156.286 22.8004 155.837 22.8189 155.837 23.0175C155.837 24.6379 155.837 25.6566 155.837 26.9745C155.837 27.4724 155.743 27.8953 155.325 28.0507C154.896 28.2161 154.424 27.9182 154.424 26.9745C154.424 24.965 154.418 23.372 154.418 21.362C154.418 20.4139 154.912 19.6235 155.745 19.3889C156.273 19.2617 156.645 19.3278 157.387 19.3278C158.56 19.3278 159.732 19.3296 160.905 19.3296C161.903 19.3296 162.736 20.2337 162.736 21.0875C162.735 23.0714 162.741 24.9156 162.753 26.8999ZM160.587 16.9745C160.587 17.4985 160.379 17.9999 160.009 18.3707C159.64 18.7409 159.139 18.9485 158.616 18.9485C158.094 18.9485 157.593 18.7409 157.223 18.3707C156.854 17.9999 156.647 17.498 156.647 16.9745C156.647 16.451 156.854 15.9482 157.223 15.5784C157.593 15.2081 158.094 15.0005 158.616 15.0005C159.705 15.0005 160.587 15.8844 160.587 16.9745ZM203.378 25.6894C203.378 11.5013 191.877 0 177.689 0C163.502 0 152 11.5013 152 25.6894C152 39.8774 163.501 51.3787 177.689 51.3787C191.877 51.3787 203.378 39.877 203.378 25.6894Z" fill="white"/>
</g>
<path d="M157.072 67.8516C157.218 68.0182 157.395 68.1823 157.603 68.3438C157.812 68.5052 158.041 68.651 158.291 68.7812C158.546 68.9062 158.822 69.0078 159.119 69.0859C159.416 69.1589 159.736 69.1953 160.08 69.1953C160.72 69.1953 161.21 69.0625 161.549 68.7969C161.892 68.526 162.064 68.1979 162.064 67.8125C162.064 67.4115 161.913 67.1068 161.611 66.8984C161.314 66.6901 160.84 66.526 160.189 66.4062L159.838 66.3438C159.369 66.2604 158.903 66.151 158.439 66.0156C157.976 65.8802 157.556 65.6849 157.181 65.4297C156.806 65.1745 156.502 64.849 156.267 64.4531C156.033 64.0521 155.916 63.5469 155.916 62.9375C155.916 62.5833 155.994 62.2135 156.15 61.8281C156.306 61.4375 156.554 61.0807 156.892 60.7578C157.236 60.4297 157.676 60.1615 158.213 59.9531C158.754 59.7448 159.408 59.6406 160.174 59.6406C161.08 59.6406 161.887 59.7917 162.595 60.0938C163.309 60.3906 163.884 60.7839 164.322 61.2734L162.814 62.6797C162.507 62.3411 162.111 62.0755 161.627 61.8828C161.147 61.6901 160.653 61.5938 160.142 61.5938C159.554 61.5938 159.093 61.7057 158.759 61.9297C158.431 62.1536 158.267 62.4453 158.267 62.8047C158.267 63.0391 158.319 63.2344 158.424 63.3906C158.533 63.5469 158.684 63.6771 158.877 63.7812C159.069 63.8802 159.301 63.9635 159.572 64.0312C159.843 64.099 160.145 64.1667 160.478 64.2344L160.658 64.2656C161.106 64.349 161.551 64.4557 161.994 64.5859C162.437 64.7109 162.838 64.8984 163.197 65.1484C163.562 65.3932 163.856 65.7161 164.08 66.1172C164.304 66.513 164.416 67.0208 164.416 67.6406C164.416 68.2031 164.299 68.7005 164.064 69.1328C163.83 69.5651 163.52 69.9349 163.134 70.2422C162.749 70.5443 162.304 70.7734 161.799 70.9297C161.293 71.0807 160.767 71.1562 160.22 71.1562C159.668 71.1562 159.155 71.1094 158.681 71.0156C158.213 70.9219 157.785 70.7891 157.4 70.6172C157.02 70.4453 156.679 70.2526 156.377 70.0391C156.08 69.8255 155.819 69.5964 155.595 69.3516L157.072 67.8516ZM168.252 73.6406H166.095V62.6328H168.252V63.3516C168.486 63.1068 168.775 62.8984 169.119 62.7266C169.463 62.5547 169.879 62.4688 170.369 62.4688C170.921 62.4688 171.421 62.5807 171.869 62.8047C172.322 63.0234 172.71 63.3281 173.033 63.7188C173.356 64.1042 173.606 64.5625 173.783 65.0938C173.96 65.625 174.049 66.2005 174.049 66.8203C174.049 67.4401 173.957 68.0156 173.775 68.5469C173.593 69.0781 173.338 69.5365 173.009 69.9219C172.681 70.3073 172.288 70.6094 171.83 70.8281C171.371 71.0469 170.866 71.1562 170.314 71.1562C170.069 71.1562 169.845 71.1328 169.642 71.0859C169.444 71.0443 169.262 70.9844 169.095 70.9062C168.929 70.8281 168.775 70.737 168.634 70.6328C168.494 70.5234 168.366 70.4062 168.252 70.2812V73.6406ZM168.189 67.5938C168.189 67.8177 168.228 68.026 168.306 68.2188C168.39 68.4062 168.507 68.5703 168.658 68.7109C168.809 68.8516 168.989 68.9609 169.197 69.0391C169.41 69.1172 169.65 69.1562 169.916 69.1562C170.223 69.1562 170.494 69.1016 170.728 68.9922C170.968 68.8776 171.168 68.7188 171.33 68.5156C171.491 68.3125 171.614 68.0729 171.697 67.7969C171.78 67.5156 171.822 67.2083 171.822 66.875V66.7734C171.822 66.4401 171.78 66.1328 171.697 65.8516C171.614 65.5703 171.491 65.3281 171.33 65.125C171.168 64.9167 170.968 64.7552 170.728 64.6406C170.494 64.526 170.223 64.4688 169.916 64.4688C169.65 64.4688 169.41 64.5078 169.197 64.5859C168.989 64.6641 168.809 64.7734 168.658 64.9141C168.507 65.0547 168.39 65.2214 168.306 65.4141C168.228 65.6068 168.189 65.8151 168.189 66.0391V67.5938ZM178.189 67.6016C177.924 67.6432 177.71 67.737 177.549 67.8828C177.387 68.0234 177.306 68.2161 177.306 68.4609C177.306 68.7318 177.405 68.9661 177.603 69.1641C177.801 69.3568 178.093 69.4531 178.478 69.4531C178.884 69.4531 179.205 69.3359 179.439 69.1016C179.674 68.8672 179.791 68.5573 179.791 68.1719V67.3281L178.189 67.6016ZM180.142 70.2109C180.054 70.3099 179.944 70.4167 179.814 70.5312C179.689 70.6406 179.538 70.7422 179.361 70.8359C179.189 70.9245 178.986 71 178.752 71.0625C178.517 71.125 178.254 71.1562 177.963 71.1562C177.546 71.1562 177.16 71.0911 176.806 70.9609C176.457 70.8255 176.15 70.638 175.884 70.3984C175.619 70.1589 175.41 69.8828 175.259 69.5703C175.108 69.2526 175.033 68.9089 175.033 68.5391C175.033 67.8672 175.241 67.3177 175.658 66.8906C176.075 66.4635 176.65 66.1953 177.384 66.0859L179.791 65.7344V65.5781C179.791 65.2031 179.676 64.9062 179.447 64.6875C179.218 64.4688 178.845 64.3594 178.33 64.3594C178.116 64.3594 177.9 64.3854 177.681 64.4375C177.463 64.4844 177.252 64.5391 177.049 64.6016C176.851 64.6641 176.666 64.737 176.494 64.8203C176.322 64.8984 176.171 64.9688 176.041 65.0312L175.197 63.3828C175.676 63.1172 176.207 62.8984 176.791 62.7266C177.379 62.5547 177.989 62.4688 178.619 62.4688C179.004 62.4688 179.392 62.5104 179.783 62.5938C180.179 62.6719 180.535 62.8177 180.853 63.0312C181.176 63.2448 181.439 63.5365 181.642 63.9062C181.845 64.2708 181.947 64.737 181.947 65.3047V68.7422C181.947 68.987 182.009 69.1693 182.134 69.2891C182.265 69.4036 182.442 69.5104 182.666 69.6094L181.689 71.1562C181.293 71.1146 180.976 71.013 180.736 70.8516C180.496 70.6849 180.299 70.4714 180.142 70.2109ZM185.541 66.8594C185.541 67.1302 185.577 67.4036 185.65 67.6797C185.723 67.9505 185.835 68.1953 185.986 68.4141C186.137 68.6328 186.33 68.8125 186.564 68.9531C186.804 69.0885 187.088 69.1562 187.416 69.1562C187.629 69.1562 187.822 69.1276 187.994 69.0703C188.171 69.013 188.327 68.9349 188.463 68.8359C188.603 68.7318 188.726 68.612 188.83 68.4766C188.939 68.3359 189.033 68.1849 189.111 68.0234L191.002 69C190.866 69.3281 190.679 69.625 190.439 69.8906C190.205 70.1562 189.931 70.3828 189.619 70.5703C189.306 70.7578 188.96 70.901 188.58 71C188.2 71.1042 187.796 71.1562 187.369 71.1562C186.78 71.1562 186.239 71.0469 185.744 70.8281C185.249 70.6042 184.822 70.2995 184.463 69.9141C184.103 69.5286 183.822 69.0729 183.619 68.5469C183.416 68.0156 183.314 67.4401 183.314 66.8203C183.314 66.2057 183.416 65.6328 183.619 65.1016C183.822 64.5703 184.103 64.1094 184.463 63.7188C184.822 63.3281 185.249 63.0234 185.744 62.8047C186.239 62.5807 186.78 62.4688 187.369 62.4688C187.796 62.4688 188.2 62.5208 188.58 62.625C188.96 62.724 189.306 62.8698 189.619 63.0625C189.931 63.25 190.205 63.4766 190.439 63.7422C190.679 64.0078 190.866 64.3047 191.002 64.6328L189.111 65.6094C189.033 65.4479 188.939 65.2995 188.83 65.1641C188.726 65.0234 188.603 64.9036 188.463 64.8047C188.327 64.7005 188.171 64.6198 187.994 64.5625C187.822 64.5 187.629 64.4688 187.416 64.4688C187.088 64.4688 186.804 64.5391 186.564 64.6797C186.33 64.8151 186.137 64.9948 185.986 65.2188C185.835 65.4375 185.723 65.6849 185.65 65.9609C185.577 66.237 185.541 66.513 185.541 66.7891V66.8594ZM194.134 67.5625C194.171 67.8125 194.249 68.0417 194.369 68.25C194.494 68.4583 194.65 68.638 194.838 68.7891C195.025 68.9349 195.241 69.0495 195.486 69.1328C195.731 69.2161 195.991 69.2578 196.267 69.2578C196.585 69.2578 196.929 69.1979 197.299 69.0781C197.668 68.9531 198.007 68.7734 198.314 68.5391L199.353 70.0547C198.963 70.3828 198.483 70.6484 197.916 70.8516C197.348 71.0547 196.744 71.1562 196.103 71.1562C195.525 71.1562 194.981 71.0573 194.47 70.8594C193.96 70.6615 193.512 70.375 193.127 70C192.746 69.625 192.444 69.1693 192.22 68.6328C192.002 68.0964 191.892 67.4922 191.892 66.8203C191.892 66.2057 191.989 65.6328 192.181 65.1016C192.379 64.5703 192.653 64.1094 193.002 63.7188C193.356 63.3281 193.778 63.0234 194.267 62.8047C194.757 62.5807 195.299 62.4688 195.892 62.4688C196.444 62.4688 196.957 62.5703 197.431 62.7734C197.905 62.9714 198.317 63.2526 198.666 63.6172C199.015 63.9766 199.288 64.4089 199.486 64.9141C199.684 65.4193 199.783 65.9766 199.783 66.5859V67.5625H194.134ZM195.884 64.3438C195.421 64.3438 195.028 64.5 194.705 64.8125C194.387 65.1198 194.202 65.4922 194.15 65.9297H197.525C197.515 65.487 197.353 65.112 197.041 64.8047C196.728 64.4974 196.343 64.3438 195.884 64.3438Z" fill="white"/>
<path d="M224.18 59.7969H231.727V61.8516H226.445V64.2344H231.312V66.2812H226.445V71H224.18V59.7969ZM237.844 64.7266H237.617C237.31 64.7266 237.016 64.7578 236.734 64.8203C236.458 64.8828 236.214 64.9974 236 65.1641C235.786 65.3255 235.615 65.5495 235.484 65.8359C235.359 66.1224 235.297 66.4896 235.297 66.9375V71H233.141V62.6328H235.297V63.5781C235.385 63.4375 235.5 63.3021 235.641 63.1719C235.781 63.0417 235.945 62.9271 236.133 62.8281C236.32 62.724 236.531 62.6406 236.766 62.5781C237 62.5156 237.253 62.4844 237.523 62.4844H237.844V64.7266ZM240.992 67.5625C241.029 67.8125 241.107 68.0417 241.227 68.25C241.352 68.4583 241.508 68.638 241.695 68.7891C241.883 68.9349 242.099 69.0495 242.344 69.1328C242.589 69.2161 242.849 69.2578 243.125 69.2578C243.443 69.2578 243.786 69.1979 244.156 69.0781C244.526 68.9531 244.865 68.7734 245.172 68.5391L246.211 70.0547C245.82 70.3828 245.341 70.6484 244.773 70.8516C244.206 71.0547 243.602 71.1562 242.961 71.1562C242.383 71.1562 241.839 71.0573 241.328 70.8594C240.818 70.6615 240.37 70.375 239.984 70C239.604 69.625 239.302 69.1693 239.078 68.6328C238.859 68.0964 238.75 67.4922 238.75 66.8203C238.75 66.2057 238.846 65.6328 239.039 65.1016C239.237 64.5703 239.51 64.1094 239.859 63.7188C240.214 63.3281 240.635 63.0234 241.125 62.8047C241.615 62.5807 242.156 62.4688 242.75 62.4688C243.302 62.4688 243.815 62.5703 244.289 62.7734C244.763 62.9714 245.174 63.2526 245.523 63.6172C245.872 63.9766 246.146 64.4089 246.344 64.9141C246.542 65.4193 246.641 65.9766 246.641 66.5859V67.5625H240.992ZM242.742 64.3438C242.279 64.3438 241.885 64.5 241.562 64.8125C241.245 65.1198 241.06 65.4922 241.008 65.9297H244.383C244.372 65.487 244.211 65.112 243.898 64.8047C243.586 64.4974 243.201 64.3438 242.742 64.3438ZM248.609 68.3281C248.917 68.6042 249.284 68.8411 249.711 69.0391C250.138 69.237 250.57 69.3359 251.008 69.3359C251.326 69.3359 251.576 69.276 251.758 69.1562C251.94 69.0312 252.031 68.8724 252.031 68.6797C252.031 68.3516 251.68 68.0964 250.977 67.9141L250.367 67.75C250.065 67.6771 249.76 67.5781 249.453 67.4531C249.146 67.3229 248.862 67.1536 248.602 66.9453C248.346 66.737 248.138 66.4844 247.977 66.1875C247.82 65.8854 247.742 65.5156 247.742 65.0781C247.742 64.7292 247.818 64.3984 247.969 64.0859C248.125 63.7682 248.344 63.4896 248.625 63.25C248.911 63.0104 249.258 62.8203 249.664 62.6797C250.07 62.5391 250.523 62.4688 251.023 62.4688C251.737 62.4688 252.372 62.5807 252.93 62.8047C253.492 63.0286 253.935 63.2812 254.258 63.5625L253.133 65C252.867 64.8073 252.552 64.6432 252.188 64.5078C251.828 64.3672 251.466 64.2969 251.102 64.2969C250.763 64.2969 250.5 64.3594 250.312 64.4844C250.125 64.6042 250.031 64.75 250.031 64.9219C250.031 65.1042 250.112 65.2526 250.273 65.3672C250.44 65.4766 250.68 65.5729 250.992 65.6562L251.898 65.9141C252.763 66.1589 253.383 66.4896 253.758 66.9062C254.133 67.3229 254.32 67.849 254.32 68.4844C254.32 68.8385 254.247 69.1771 254.102 69.5C253.956 69.8177 253.742 70.1016 253.461 70.3516C253.18 70.6016 252.831 70.7995 252.414 70.9453C251.997 71.0859 251.523 71.1562 250.992 71.1562C250.586 71.1562 250.203 71.1198 249.844 71.0469C249.49 70.974 249.159 70.875 248.852 70.75C248.549 70.6198 248.276 70.474 248.031 70.3125C247.786 70.151 247.578 69.9896 247.406 69.8281L248.609 68.3281ZM255.719 59.7969H257.875V63.3516C257.99 63.237 258.117 63.1276 258.258 63.0234C258.404 62.9141 258.562 62.8203 258.734 62.7422C258.906 62.6589 259.096 62.5938 259.305 62.5469C259.518 62.4948 259.753 62.4688 260.008 62.4688C260.461 62.4688 260.867 62.5443 261.227 62.6953C261.586 62.8411 261.888 63.0443 262.133 63.3047C262.383 63.5651 262.573 63.8698 262.703 64.2188C262.833 64.5677 262.898 64.9453 262.898 65.3516V71H260.742V66.1328C260.742 65.8359 260.708 65.5859 260.641 65.3828C260.573 65.1745 260.479 65.0078 260.359 64.8828C260.245 64.7526 260.107 64.6589 259.945 64.6016C259.789 64.5391 259.617 64.5078 259.43 64.5078C259.211 64.5078 259.005 64.5469 258.812 64.625C258.625 64.7031 258.461 64.8229 258.32 64.9844C258.18 65.1406 258.07 65.3385 257.992 65.5781C257.914 65.8177 257.875 66.099 257.875 66.4219V71H255.719V59.7969ZM270.297 67.6016C270.031 67.6432 269.818 67.737 269.656 67.8828C269.495 68.0234 269.414 68.2161 269.414 68.4609C269.414 68.7318 269.513 68.9661 269.711 69.1641C269.909 69.3568 270.201 69.4531 270.586 69.4531C270.992 69.4531 271.312 69.3359 271.547 69.1016C271.781 68.8672 271.898 68.5573 271.898 68.1719V67.3281L270.297 67.6016ZM272.25 70.2109C272.161 70.3099 272.052 70.4167 271.922 70.5312C271.797 70.6406 271.646 70.7422 271.469 70.8359C271.297 70.9245 271.094 71 270.859 71.0625C270.625 71.125 270.362 71.1562 270.07 71.1562C269.654 71.1562 269.268 71.0911 268.914 70.9609C268.565 70.8255 268.258 70.638 267.992 70.3984C267.727 70.1589 267.518 69.8828 267.367 69.5703C267.216 69.2526 267.141 68.9089 267.141 68.5391C267.141 67.8672 267.349 67.3177 267.766 66.8906C268.182 66.4635 268.758 66.1953 269.492 66.0859L271.898 65.7344V65.5781C271.898 65.2031 271.784 64.9062 271.555 64.6875C271.326 64.4688 270.953 64.3594 270.438 64.3594C270.224 64.3594 270.008 64.3854 269.789 64.4375C269.57 64.4844 269.359 64.5391 269.156 64.6016C268.958 64.6641 268.773 64.737 268.602 64.8203C268.43 64.8984 268.279 64.9688 268.148 65.0312L267.305 63.3828C267.784 63.1172 268.315 62.8984 268.898 62.7266C269.487 62.5547 270.096 62.4688 270.727 62.4688C271.112 62.4688 271.5 62.5104 271.891 62.5938C272.286 62.6719 272.643 62.8177 272.961 63.0312C273.284 63.2448 273.547 63.5365 273.75 63.9062C273.953 64.2708 274.055 64.737 274.055 65.3047V68.7422C274.055 68.987 274.117 69.1693 274.242 69.2891C274.372 69.4036 274.549 69.5104 274.773 69.6094L273.797 71.1562C273.401 71.1146 273.083 71.013 272.844 70.8516C272.604 70.6849 272.406 70.4714 272.25 70.2109ZM278.016 71H275.859V62.6328H278.016V71ZM275.633 60.4375C275.633 60.2604 275.667 60.0938 275.734 59.9375C275.802 59.776 275.893 59.638 276.008 59.5234C276.128 59.4036 276.266 59.3099 276.422 59.2422C276.578 59.1745 276.747 59.1406 276.93 59.1406C277.107 59.1406 277.273 59.1745 277.43 59.2422C277.591 59.3099 277.729 59.4036 277.844 59.5234C277.964 59.638 278.057 59.776 278.125 59.9375C278.193 60.0938 278.227 60.2604 278.227 60.4375C278.227 60.6198 278.193 60.7891 278.125 60.9453C278.057 61.1016 277.964 61.2396 277.844 61.3594C277.729 61.474 277.591 61.5651 277.43 61.6328C277.273 61.7005 277.107 61.7344 276.93 61.7344C276.747 61.7344 276.578 61.7005 276.422 61.6328C276.266 61.5651 276.128 61.474 276.008 61.3594C275.893 61.2396 275.802 61.1016 275.734 60.9453C275.667 60.7891 275.633 60.6198 275.633 60.4375ZM284.578 64.7266H284.352C284.044 64.7266 283.75 64.7578 283.469 64.8203C283.193 64.8828 282.948 64.9974 282.734 65.1641C282.521 65.3255 282.349 65.5495 282.219 65.8359C282.094 66.1224 282.031 66.4896 282.031 66.9375V71H279.875V62.6328H282.031V63.5781C282.12 63.4375 282.234 63.3021 282.375 63.1719C282.516 63.0417 282.68 62.9271 282.867 62.8281C283.055 62.724 283.266 62.6406 283.5 62.5781C283.734 62.5156 283.987 62.4844 284.258 62.4844H284.578V64.7266Z" fill="white"/>
<g clip-path="url(#clip3)">
<path d="M253.5 0C248.457 0 243.526 1.49555 239.333 4.29752C235.14 7.0995 231.871 11.0821 229.941 15.7416C228.011 20.4011 227.506 25.5283 228.49 30.4748C229.474 35.4213 231.903 39.965 235.469 43.5312C239.035 47.0975 243.579 49.5261 248.525 50.51C253.472 51.4939 258.599 50.989 263.258 49.0589C267.918 47.1289 271.901 43.8605 274.702 39.667C277.504 35.4736 279 30.5434 279 25.5C279 18.737 276.313 12.251 271.531 7.46878C266.749 2.6866 260.263 0 253.5 0V0ZM235.689 18.8112L236.876 18.1769C239.204 16.9575 242.394 15.2902 246.818 18.4483C247.04 18.6052 247.259 18.7752 247.472 18.9354C249.07 20.1483 250.577 21.2958 253.899 20.0927C254.687 19.762 255.431 19.336 256.115 18.8242C258.404 17.2583 261.209 15.349 266.927 17.8435V14.316L273.557 19.4323L266.927 24.5519V21.031C261.846 18.4156 259.937 19.7004 257.737 21.201C256.856 21.8551 255.895 22.3925 254.876 22.7996C250.084 24.5323 247.465 22.5446 245.723 21.2271C245.517 21.0702 245.32 20.9231 245.134 20.789C242.156 18.6575 240.423 19.5696 238.207 20.7269C237.719 20.9819 237.226 21.2435 236.699 21.469C236.531 21.5413 236.348 21.5772 236.165 21.5744C235.981 21.5716 235.8 21.5301 235.634 21.4527C235.467 21.3753 235.319 21.2637 235.198 21.1251C235.078 20.9865 234.988 20.8241 234.934 20.6485C234.795 20.3042 234.797 19.9194 234.938 19.5761C235.079 19.2328 235.349 18.9583 235.689 18.8112V18.8112ZM266.927 36.9815V33.4638C261.846 30.8485 259.937 32.1333 257.737 33.6338C256.856 34.288 255.895 34.8253 254.876 35.2325C250.084 36.9652 247.465 34.9775 245.723 33.66C245.517 33.5031 245.32 33.356 245.134 33.2219C242.149 31.0904 240.407 32.0025 238.2 33.1565C237.713 33.4115 237.219 33.6731 236.693 33.8987C236.524 33.9709 236.342 34.0068 236.158 34.004C235.975 34.0012 235.794 33.9597 235.627 33.8823C235.461 33.8049 235.312 33.6933 235.192 33.5547C235.071 33.4161 234.981 33.2537 234.928 33.0781C234.79 32.7346 234.791 32.3509 234.931 32.0085C235.072 31.666 235.34 31.3918 235.679 31.244L236.866 30.6098C239.194 29.3904 242.385 27.7231 246.808 30.8812C247.03 31.0381 247.249 31.2081 247.462 31.3683C249.06 32.5812 250.568 33.7287 253.889 32.5256C254.68 32.1956 255.428 31.7696 256.115 31.2571C258.404 29.6912 261.209 27.7819 266.927 30.2763V26.7488L273.557 31.8652L266.927 36.9815Z" fill="white"/>
</g>
<defs>
<clipPath id="clip0">
<rect width="51.3783" height="51.3783" fill="white"/>
</clipPath>
<clipPath id="clip1">
<rect width="51.3783" height="51.3783" fill="white" transform="translate(76)"/>
</clipPath>
<clipPath id="clip2">
<rect width="51.3783" height="51.3783" fill="white" transform="translate(152)"/>
</clipPath>
<clipPath id="clip3">
<rect width="51" height="51" fill="white" transform="translate(228)"/>
</clipPath>
</defs>
</svg>
