<svg class="covid__instruction-icon" width="45" height="45" viewBox="0 0 400 400" xmlns="http://www.w3.org/2000/svg"><path d="M380.3 205.55c1.23 2.91 1.57 6.85-.99 9.17-2.66 2.49-6.99.64-8.38-2.37-3.41-10.42-6.24-21.27-9.42-31.78-.7-2.33-3.51-2.18-3.29-.35 4.79 17.79 15.09 53.53 15.09 53.53H357.5v43.98c0 3.3-3.18 5.77-6.68 5.7-3.05-.06-6.44-2.8-6.44-5.7v-43.98h-3.5v43.98c0 3.2-3.02 5.73-6.42 5.73-3.18 0-6.53-2.15-6.53-5.21v-44.5H311.8s10.49-36.26 15.43-53.53c.63-2.22-2.45-1.75-3.04.35-3.24 9.73-5.86 18.54-8.85 28.37-.5 3.14-2.64 6.64-6.05 6.94-3.56.36-5.89-3.52-5.41-6.73 4.59-16.34 9.47-32.61 14.3-48.87 1.27-4.55 4.86-9.5 9.91-9.5h27.85c4.88 0 8.78 3.5 10.4 7.72 4.9 15.6 9.27 31.38 13.96 47.05m-22.39-73.09c0 8.49-6.87 15.37-15.35 15.37a15.343 15.343 0 01-15.34-15.37c0-4.08 1.62-7.99 4.49-10.87 2.88-2.88 6.78-4.5 10.85-4.5 8.48 0 15.35 6.88 15.35 15.37m-66.96 67.84l-33.7 33.7v-20.47H130.36V234l-33.7-33.7 33.7-33.7v20.47h126.89V166.6l33.7 33.7zm-207.23 9.42c0 4.08-.33 7.28-3.56 8.81-3.12 1.57-7.6-.53-7.6-7.88v-30.79c0-1.68-3.5-1.47-3.5-.05v98.06c0 3.85-4.43 5.58-8.07 5.57-3.48-.01-8.03-1.88-8.03-5.41v-58.29c0-1.93-3.2-1.75-3.5 0-.25 20.21 0 49.68 0 58.07 0 3.85-4.67 5.63-8.35 5.63-3.53 0-7.74-2.08-7.74-5.73v-98.17c0-1.73-3.5-1.58-3.5-.04v30.81c0 3.88-.73 7.17-3.98 8.38-3.34 1.29-7.01-1.03-7.01-8.38 0-15.65-.05-28.05-.05-43.7 0-7.38 3.85-13.54 10.33-15.36 4.11-.99 7.01-.48 12.78-.48 9.13 0 18.26.01 27.39.01 7.77 0 14.25 7.04 14.25 13.69 0 15.45.05 29.81.14 45.25m-16.87-77.27c0 4.08-1.62 7.98-4.49 10.87-2.88 2.88-6.78 4.5-10.85 4.5a15.343 15.343 0 01-15.34-15.37 15.343 15.343 0 0115.34-15.37c8.47 0 15.34 6.88 15.34 15.37M400 200.3C400 89.84 310.46.3 200 .3S0 89.84 0 200.3s89.54 200 200 200 200-89.54 200-200"/></svg>