<svg class="covid__instruction-icon" width="45" height="45" viewBox="0 0 400 400" xmlns="http://www.w3.org/2000/svg"><path d="M200 .3C89.54.3 0 89.84 0 200.3s89.54 200 200 200 200-89.55 200-200S310.46.3 200 .3zm56.19 121.49c2.43-5.35 8.3-8.04 13.97-7.37 3 .35 5.55 1.38 7.82 3.39.8.71 1.98 2.25 2.43 3.1.37.69.68 1.42.94 2.16.31.89.33.93.49 1.79.58 3.04.36 5.99-.74 8.71-.62 1.53-1.13 2.4-2.17 3.62-.53.63-.64.75-1.31 1.3-.27.22-.55.43-.84.63-.19.13-.39.27-.58.39-.04.02-.17.1-.24.14-.75.41-1.55.74-2.36 1.01-.86.29-1 .33-2.09.5-1.87.29-2.95.31-4.71.08-3.31-.42-6.09-1.61-8.56-3.85-1.88-2.2-2.89-4.58-3.24-7.25-.38-2.88-.02-5.68 1.19-8.35zm-26.14-25.45c.57-2.33 1.65-4.23 3.45-5.81 1.72-1.16 3.5-1.7 5.44-1.73 2.08-.03 4.04.45 5.85 1.54 3.62 2.18 5.05 6.59 4.12 10.6-.5 2.12-1.44 3.86-3.06 5.32-.57.52-1.77 1.24-2.41 1.49-.52.21-1.07.37-1.62.5-.66.15-.69.16-1.31.21-2.22.16-4.3-.24-6.15-1.24-1.04-.57-1.62-1.01-2.41-1.85-.41-.43-.48-.52-.82-1.05-.13-.21-.26-.43-.38-.65-.08-.15-.16-.3-.23-.45-.01-.03-.05-.13-.08-.18-.23-.57-.4-1.17-.52-1.77-.14-.64-.15-.74-.19-1.54-.05-1.36.02-2.14.32-3.39zm1.66 29.74c0 9.11-7.37 16.49-16.46 16.49s-16.46-7.38-16.46-16.49c0-9.1 7.37-16.49 16.46-16.49 9.1 0 16.46 7.39 16.46 16.49zm-38.96-64.02c9.27 0 16.78 7.53 16.78 16.82s-7.51 16.81-16.78 16.81-16.78-7.53-16.78-16.81 7.51-16.82 16.78-16.82zm-12.89 68.14c0 10.74-8.69 19.44-19.4 19.44s-19.4-8.7-19.4-19.44c0-10.73 8.69-19.44 19.4-19.44s19.4 8.71 19.4 19.44zM146.9 59.44c10.71 0 19.4 8.7 19.4 19.44s-8.69 19.44-19.4 19.44-19.4-8.7-19.4-19.44c-.01-10.74 8.68-19.44 19.4-19.44zm-7.06 108.7c0 9.11-7.37 16.49-16.46 16.49s-16.46-7.38-16.46-16.49c0-9.1 7.37-16.49 16.46-16.49 9.1 0 16.46 7.38 16.46 16.49zm-23.18-64.82c9.27 0 16.78 7.53 16.78 16.82s-7.51 16.81-16.78 16.81-16.78-7.53-16.78-16.81 7.51-16.82 16.78-16.82zm-16.44 117.13c2.35-4.34 6.25-7.49 10.99-8.88l65.8-19.68c-.68-.3-1.31-.62-1.95-.94-4.35-2.26-7.63-4.69-9.84-7.27-2.94-3.16-4.74-7.4-4.74-12.06 0-6.07 3.05-11.43 7.7-14.62 6.41-5.03 17.61-4.25 34.86 2.48.73.25 1.7.6 2.68 1.04 12.17 4.94 41.35 7.31 60.52 8.36.69.04 13.22.81 13.88.84l6.31 21.66c-22.39-1.65-38.9-4.16-46.19-7.1-.92-.39-1.91-.78-2.97-1.15-10.59-4.12-19.1-6.11-26.02-6.11-.5 0-.99.01-1.47.03-13.16.2-23.77 10.94-23.77 24.18 0 4.9 1.46 9.46 3.96 13.27l-4.22 1.29c-.22.01-.45.05-.67.12l-26.2 8.09-50.81 15.68c-3.87 1.2-8.03-.94-9.2-4.82-.01-.02-.01-.05-.02-.08-1.5-4.99-.99-9.98 1.37-14.33zm-9.42 55.54c0-.01-.01-.01-.03-.02-3.83-2.2-6.5-5.44-7.6-9.12-1.35-4.51-1.76-13.02 4.94-15.11 15.7-4.9 50.38-15.55 50.38-15.55-5.03 2.19-9.18 5.97-11.86 10.89-3.18 5.87-3.84 12.71-1.87 19.27l.03.1c.13.43.28.83.45 1.24l-28.61 8.83c-1.94.61-4.05.46-5.83-.53zm214.22 28.3c-2.04 1.51-26.65 17.18-38.21 20.79-11.87 3.71-47.61 14.34-47.61 14.34-4.19 1.25-13.47 2.35-19.32 1.07-5.7-1.25-11.18-3.56-15.42-6.5a4.94 4.94 0 01-.66-.53c-1.26-1.2-2.38-2.78-3.24-4.56-.2-.4-.21-.87-.03-1.28.17-.4.51-.7.93-.83l52.53-16.22c.46-.14.86-.38 1.19-.71a2.895 2.895 0 00-2.89-4.82l-68.34 21.1c-2.66.82-5.42 1.02-7.99.6h-.04c-6.27-1.02-9.18-4.38-11.3-6.83-.39-.45-.82-.93-1.28-1.4-1.34-1.57-2.38-3.19-3.09-4.81-.49-1.12-.48-2.4.03-3.52a4.446 4.446 0 012.75-2.41l84.64-26.13c.46-.14.87-.38 1.2-.71.76-.76 1.03-1.87.72-2.91a2.901 2.901 0 00-3.62-1.92l-97.32 30.04c-1.96.61-4.05.42-5.75-.52a.138.138 0 00-.04-.03c-3.78-2.18-6.46-5.4-7.56-9.07-1.14-3.79-.3-8.34.75-11.15.51-1.35 2.08-3.21 4.44-3.95 21.1-6.57 98.32-30.35 98.32-30.35.45-.14.86-.39 1.19-.71a2.86 2.86 0 00.72-2.9c-.22-.74-.72-1.34-1.4-1.71s-1.47-.44-2.21-.21c0 0-40.37 12.42-66.09 20.38-.45.14-6.9 2.14-7.34 2.27-4.55 1.4-10.85 2.1-13.29-5.61-1.21-3.81-.43-8.01 1.94-12.4 2.35-4.31 6.23-7.45 10.94-8.83l65.8-19.68.23-.07-.21-.1c-.72-.32-1.38-.65-1.94-.94-4.97-2.58-5.74-3.55-7.14-4.62-4.25-3.34-6.99-8.52-6.99-14.35 0-8.47 5.77-15.59 13.58-17.64 6.61-1.34 15.93.42 28.46 5.31.67.23 1.67.59 2.68 1.03 12.53 5.08 43.32 7.42 60.55 8.37.27.02 2.43.15 4.96.3 3.66.22 8.18.5 8.86.54l24.53 84.21c-9.27 4.1-29.35 18.91-31.62 20.58z"/></svg>