<svg class="covid__logos" width="300" height="45" viewBox="0 0 300 45" fill="none" xmlns="http://www.w3.org/2000/svg"><path d="M15.182 4.085c-1.034-.528-2.494-.946-3.661-.946-1.406 0-2.467.633-2.467 1.997 0 3.339 7.298 1.79 7.298 8.313 0 3.471-2.786 5.577-6.474 5.577-2.254 0-4.193-.528-4.987-.761l.239-3.576c1.3.501 2.44 1.13 4.06 1.13 1.38 0 2.707-.686 2.707-2.182 0-3.55-7.295-1.816-7.295-8.366 0-.554.213-5.234 6.42-5.234 1.699 0 2.76.29 4.353.633l-.194 3.414zm6.748-.422h-4.033V.347h12.419v3.316h-4.037v15.048H21.93V3.663zm19.056 10.944h-5.808l-1.273 4.104h-4.193L35.865.347h4.774l5.942 18.36h-4.459l-1.137-4.1zm-2.76-10.733h-.053l-2.201 7.627h4.166l-1.912-7.627zm13.035 7.812L45.635.35h4.987l2.976 7.1 2.76-7.104h4.881l-5.626 11.415v6.945h-4.352v-7.021zm-42.4 25.321H4.353v7.627H0v-18.36h4.353v7.311h4.512v-7.311h4.353v18.36H8.861v-7.627zm14.624-11.046c5.333 0 7.88 4.104 7.88 9.497s-2.547 9.497-7.88 9.497-7.853-4.104-7.853-9.497 2.52-9.497 7.854-9.497zm0 15.888c2.52 0 3.421-2.868 3.421-6.391s-.901-6.391-3.421-6.391-3.395 2.868-3.395 6.391.874 6.391 3.395 6.391zm25.153-11.735h-.053l-4.166 14.52h-2.866l-4.003-14.52h-.053v14.52h-3.98v-18.36h6.553l2.999 11.81h.053l3.239-11.81h6.261v18.36h-3.98l-.004-14.52zm6.823-3.84h10.693v3.211h-6.5v4.104h6.181V36.8h-6.181v4.628h6.82v3.211H55.461V26.274zM104.179.347h5.926c3.957 0 6.348 1.869 6.348 5.849 0 3.135-1.752 5.822-5.819 5.822h-2.099v6.712h-4.356V.347zm5.58 8.453c1.354 0 2.338-.923 2.338-2.634 0-1.816-.851-2.608-2.577-2.608h-1.144V8.8h1.383zm8.234-8.453h6.8c3.057 0 5.661 1.342 5.661 4.741 0 .765-.107 3.791-3.691 4.503v.053c1.353.158 1.885.897 2.577 3.083l1.912 6.003h-4.569l-1.433-4.926c-.719-2.502-1.304-2.502-2.897-2.502v7.428h-4.36V.347zm4.197 7.846h1.357c1.672 0 2.55-1.104 2.55-2.423 0-.765-.239-2.318-2.577-2.318h-1.327l-.003 4.741zM139.565.03c5.341 0 7.892 4.108 7.892 9.508s-2.551 9.508-7.892 9.508-7.865-4.108-7.865-9.508S134.225.03 139.565.03zm0 15.907c2.524 0 3.429-2.872 3.429-6.399s-.905-6.399-3.429-6.399-3.402 2.872-3.402 6.399.878 6.399 3.402 6.399zm12.058-12.274h-4.037V.347h12.434v3.32h-4.037V18.73h-4.356l-.004-15.067zM161.799.347h10.709v3.215H166V7.67h6.192v3.215H166v4.635h6.827v3.214h-11.024L161.799.347zm25.051 4.16c-.665-.369-1.779-1.055-3.771-1.055-2.923 0-4.782 2.344-4.782 6.056 0 3.584 2.098 6.007 4.862 6.007 2.125 0 3.375-.791 3.797-.976l.16 3.844c-.745.237-2.285.66-4.649.66-5.075 0-8.633-3.765-8.633-9.587 0-6.742 4.569-9.429 8.344-9.429 2.764 0 4.17.607 4.889.897l-.217 3.584zm5.58-.844h-4.037V.347h12.434v3.32h-4.037V18.73h-4.356l-.004-15.067zm-84.206 25.939h-4.045v-3.324h12.445v3.324h-4.04v15.082h-4.36V29.602zm19.371 7.435h-4.52v7.646h-4.36V26.278h4.36v7.33h4.52v-7.33h4.36v18.405h-4.36v-7.646zm7.481-10.759h10.72v3.218h-6.516v4.111h6.197v3.218h-6.197v4.639h6.835v3.218h-11.039V26.278zm19.71 0h5.105l5.398 12.76h.053v-12.76h3.832v18.405h-5.159l-5.344-13.314h-.053v13.314h-3.832V26.278zm26.126 10.759h-4.519v7.646h-4.361V26.278h4.361v7.33h4.519v-7.33h4.36v18.405h-4.36v-7.646zm17.589-7.013c-1.038-.528-2.501-.95-3.668-.95-1.41 0-2.475.633-2.475 2.005 0 3.35 7.314 1.794 7.314 8.332 0 3.478-2.794 5.589-6.489 5.589-2.262 0-4.204-.528-4.999-.765l.24-3.584c1.304.501 2.448 1.134 4.067 1.134 1.384 0 2.714-.686 2.714-2.19 0-3.557-7.313-1.82-7.313-8.385 0-.554.212-5.246 6.435-5.246 1.703 0 2.768.29 4.36.633l-.186 3.426z" fill="#fff"/><path d="M89.346 22.427L80.52 11.893v21.062l8.827-10.529z" fill="#fff500"/><path d="M249.583 4.066c-1.038-.528-2.501-.95-3.672-.95-1.41 0-2.475.633-2.475 2.005 0 3.354 7.322 1.794 7.322 8.34 0 3.486-2.794 5.596-6.497 5.596-2.261 0-4.208-.527-5.006-.765l.239-3.591c1.304.501 2.448 1.134 4.075 1.134 1.384 0 2.718-.686 2.718-2.19 0-3.565-7.321-1.82-7.321-8.392 0-.554.213-5.253 6.443-5.253 1.703 0 2.768.29 4.368.633l-.194 3.433zm13.677 10.556h-5.831l-1.277 4.119h-4.208L258.121.317h4.793l5.965 18.424h-4.474l-1.145-4.119zm-2.771-10.767h-.053l-2.209 7.654h4.182l-1.92-7.654zm7.124-3.538h4.687l3.277 13.435h.053L278.986.317h4.475l-5.623 18.424h-4.687L267.613.317zm18.36 0h10.731v3.218h-6.523v4.119h6.204v3.222h-6.204v4.647h6.843v3.218h-11.051V.317zm-48.071 25.931h4.367v15.097h6.151v3.328h-10.518V26.248zm12.818 0h4.367v18.424h-4.367V26.248zm6.496 0h4.687l3.277 13.435h.053l3.357-13.435h4.474l-5.619 18.424h-4.687l-5.542-18.424zm17.995 0h10.732v3.218h-6.524v4.119h6.204v3.222h-6.204v4.647h6.843v3.218h-11.051V26.248zm23.618 3.746c-1.037-.528-2.501-.95-3.676-.95-1.41 0-2.474.633-2.474 2.005 0 3.354 7.321 1.794 7.321 8.34 0 3.486-2.794 5.596-6.496 5.596-2.262 0-4.208-.528-5.007-.765l.24-3.591c1.304.501 2.448 1.134 4.075 1.134 1.383 0 2.714-.686 2.714-2.189 0-3.565-7.321-1.82-7.321-8.393 0-.554.212-5.253 6.443-5.253 1.703 0 2.767.29 4.368.633l-.187 3.433z" fill="#fff"/><path d="M223.609 22.427l-8.831-10.533v21.062l8.831-10.529z" fill="#fff500"/></svg>
