<svg xmlns="http://www.w3.org/2000/svg" xml:space="preserve" id="Layer_1" x="0" y="0" style="enable-background:new 0 0 231 64.5" version="1.1" viewBox="0 0 231 64.5"><style>.st0{fill:#c10016}.st1{fill:#002f6c}.st2{fill:#dee7ff}</style><path d="m4.9 40.2 25.2-22.4v-.1c-8.2-3.3-15.8-7.1-22.4-11.3L4.9 40.2z" class="st0"/><path d="m30.3 18 3.1 33.1 20.3-25.7c-8.3-2.1-16.1-4.7-23.4-7.6v.2z" class="st1"/><path d="m61 57.8 17.1-27.6c-8.3-1.2-16.3-2.8-23.9-4.7L61 57.8z" class="st2"/><path d="m88.4 62.2 14.4-29.6c-8.4-.4-16.7-1.2-24.6-2.3l10.2 31.9z" class="st0"/><path d="m103 32.6 12.4 31.3 12.7-31.3c-4.2.2-8.4.3-12.6.3-4.2 0-8.3-.1-12.5-.3z" class="st1"/><path d="m143.5 62 9.6-31.8c-7.9 1.1-16.1 1.9-24.5 2.3L143.5 62z" class="st2"/><path d="m172.2 57.4 6.3-32.3c-7.6 2-15.6 3.6-23.9 4.9l17.6 27.4z" class="st0"/><path d="m200.6 49.3 1.5-32c-7.1 2.9-14.7 5.4-22.7 7.6l21.2 24.4z" class="st1"/><path d="m227.5 38.7-3.1-32.8c-6.5 4.1-13.8 7.9-21.8 11.2l24.9 21.6z" class="st2"/><path d="M-3.3-1.4c3.3 2.7 7 5.3 11 7.8 6.7 4.2 14.2 8 22.4 11.3.1 0 .2.1.2.1 7.3 2.9 15.1 5.5 23.4 7.6.2 0 .3.1.4.1 7.6 1.9 15.6 3.5 23.9 4.7h.2c7.9 1.1 16.2 1.9 24.6 2.3h.2c4.1.2 8.3.3 12.5.3 4.2 0 8.4-.1 12.6-.3h.4c8.4-.4 16.6-1.2 24.5-2.3.5-.1 1.1-.2 1.6-.2 8.3-1.3 16.3-2.9 23.9-4.9.3-.1.6-.2.9-.2 8.1-2.2 15.7-4.7 22.7-7.6.2-.1.3-.1.5-.2 8-3.3 15.3-7.1 21.8-11.2 3.5-2.3 6.8-4.7 9.9-7.2" style="fill:none;stroke:#b1b4b6;stroke-width:1.25;stroke-miterlimit:10"/></svg>